<svg xmlns="http://www.w3.org/2000/svg" xmlns:xlink="http://www.w3.org/1999/xlink" width="160" zoomAndPan="magnify" viewBox="0 0 120 119.999999" height="160" preserveAspectRatio="xMidYMid meet" version="1.0"><defs><clipPath id="24302bd1a0"><path d="M 31.355469 31.355469 L 88.355469 31.355469 L 88.355469 88.355469 L 31.355469 88.355469 Z M 31.355469 31.355469 " clip-rule="nonzero"/></clipPath></defs><g clip-path="url(#24302bd1a0)"><path fill="#fff0ef" d="M 82.269531 31.355469 L 37.71875 31.355469 C 34.203125 31.355469 31.355469 34.203125 31.355469 37.71875 L 31.355469 82.269531 C 31.355469 85.789062 34.203125 88.636719 37.71875 88.636719 L 82.269531 88.636719 C 85.789062 88.636719 88.636719 85.789062 88.636719 82.269531 L 88.636719 37.71875 C 88.636719 34.203125 85.789062 31.355469 82.269531 31.355469 Z M 50.449219 75.90625 L 42.417969 75.90625 L 42.417969 53.628906 L 50.449219 53.628906 Z M 46.292969 49.546875 C 43.839844 49.546875 42.199219 47.914062 42.199219 45.730469 C 42.199219 43.546875 43.835938 41.910156 46.5625 41.910156 C 49.015625 41.910156 50.65625 43.546875 50.65625 45.730469 C 50.65625 47.914062 49.019531 49.546875 46.292969 49.546875 Z M 79.089844 75.90625 L 71.316406 75.90625 L 71.316406 63.730469 C 71.316406 60.363281 69.246094 59.589844 68.46875 59.589844 C 67.691406 59.589844 65.101562 60.105469 65.101562 63.730469 C 65.101562 64.25 65.101562 75.90625 65.101562 75.90625 L 57.074219 75.90625 L 57.074219 53.628906 L 65.101562 53.628906 L 65.101562 56.738281 C 66.136719 54.925781 68.207031 53.628906 72.09375 53.628906 C 75.980469 53.628906 79.089844 56.738281 79.089844 63.730469 Z M 79.089844 75.90625 " fill-opacity="1" fill-rule="nonzero"/></g></svg>